<?xml version="1.0" standalone="no"?>
<!DOCTYPE svg PUBLIC "-//W3C//DTD SVG 20010904//EN"
 "http://www.w3.org/TR/2001/REC-SVG-20010904/DTD/svg10.dtd">
<svg version="1.0" xmlns="http://www.w3.org/2000/svg"
 width="1080.000000pt" height="1080.000000pt" viewBox="0 0 1080.000000 1080.000000"
 preserveAspectRatio="xMidYMid meet">

<g transform="translate(0.000000,1080.000000) scale(0.100000,-0.100000)"
fill="#000000" stroke="none">
<path d="M5137 10379 c-567 -28 -1142 -159 -1667 -379 -123 -52 -415 -193
-508 -246 -448 -257 -801 -529 -1152 -890 -732 -751 -1222 -1764 -1355 -2802
-38 -299 -45 -447 -35 -768 5 -170 12 -325 14 -344 3 -19 10 -80 16 -135 115
-1053 612 -2100 1365 -2874 654 -673 1459 -1138 2374 -1371 547 -139 1201
-181 1777 -115 1009 117 1959 538 2718 1206 1035 911 1646 2198 1692 3564 7
192 -7 511 -32 740 -104 953 -488 1856 -1116 2625 -131 161 -487 517 -650 652
-532 439 -1162 770 -1813 955 -386 109 -723 163 -1135 183 -234 11 -259 11
-493 -1z m-110 -1659 l622 -212 -30 -85 c-35 -97 -182 -529 -1434 -4193 -504
-1477 -920 -2689 -925 -2693 -15 -16 -395 226 -545 347 l-29 23 140 404 c96
273 137 406 130 411 -6 3 -146 53 -311 109 -165 56 -302 104 -304 105 -1 2 45
147 104 323 l106 320 57 -20 c333 -118 572 -197 576 -191 10 17 428 1253 425
1256 -2 1 -139 49 -304 105 -165 57 -305 106 -311 110 -7 4 27 114 95 313 59
169 109 309 112 312 3 4 144 -42 313 -100 169 -58 311 -102 316 -98 9 11 432
1246 427 1250 -2 2 -143 52 -313 110 -170 59 -310 108 -311 109 -8 5 214 625
224 625 6 0 148 -47 315 -104 166 -58 304 -103 306 -102 4 5 420 1241 418
1243 -1 1 -138 52 -305 112 -166 60 -305 111 -308 114 -8 9 101 317 112 314 6
-2 290 -100 632 -217z m-1017 -355 c250 -85 460 -157 466 -159 9 -3 -128 -426
-201 -623 -3 -9 -145 35 -457 141 -521 177 -488 165 -488 178 0 8 176 528 201
596 5 12 12 22 17 22 4 0 212 -70 462 -155z m3840 -635 c872 -298 1591 -547
1597 -554 7 -6 31 -56 54 -111 279 -684 383 -1483 288 -2225 -161 -1265 -869
-2405 -1936 -3118 -594 -397 -1274 -642 -2008 -724 -159 -17 -729 -17 -890 0
-265 29 -579 90 -805 158 -148 45 -399 134 -406 145 -2 5 511 1519 1142 3366
631 1847 1169 3424 1196 3505 l49 146 67 -23 c37 -12 780 -267 1652 -565z
m-4470 -1267 c250 -86 456 -157 457 -158 7 -5 -212 -625 -221 -625 -11 0 -927
310 -935 317 -4 3 18 71 142 431 58 168 72 202 86 197 9 -4 221 -76 471 -162z
m-660 -1889 c256 -87 467 -159 469 -160 2 -2 -45 -145 -104 -319 -76 -222
-112 -315 -121 -311 -7 3 -218 75 -470 161 -252 85 -459 157 -461 158 -5 5
209 627 216 627 3 0 215 -70 471 -156z m-517 -1945 c180 -62 327 -117 327
-123 0 -6 -27 -91 -61 -188 l-61 -177 -59 50 c-118 104 -510 549 -482 549 4 0
155 -50 336 -111z"/>
</g>
</svg>
